<svg height="512" viewBox="0 0 1024 1024" xmlns="http://www.w3.org/2000/svg" xmlns:xlink="http://www.w3.org/1999/xlink" overflow="hidden"><path d="M951.973 748.241C841.084 747.714 730.19 747.981 619.299 747.981L601.726 747.981C603.324 770.535 605.364 792.137 606.261 813.789 607.417 841.674 620.505 861.277 644.878 874.205 654.762 879.447 664.19 885.565 673.695 891.489 676.548 893.264 679.562 895.304 681.472 897.964 686.819 905.411 683.325 912.234 674.076 912.406 659.752 912.669 645.42 912.512 631.092 912.51 538.891 912.505 446.689 912.503 354.486 912.451 349.07 912.447 342.237 914.14 340.408 906.759 338.64 899.626 343.572 895.272 349.225 891.887 361.508 884.535 373.822 877.234 386.041 869.779 404.907 858.273 415.247 841.474 416.911 819.404 418.666 796.131 420.401 772.857 422.263 747.986L410.184 747.986C296.49 747.985 182.793 747.99 69.0981 747.981 44.2541 747.979 33.3436 737.001 33.3417 712.02 33.338 536.046 33.3342 320.114 33.3473 144.141 33.3492 121.631 44.886 109.869 67.0379 109.868 362.022 109.847 657.008 109.954 951.99 109.597 970.328 109.576 983.246 115.262 990.534 132.288L990.534 725.553C983.211 742.537 970.315 748.327 951.973 748.241ZM945.005 175.453 78.7131 175.453 78.7131 677.778 945.005 677.778 945.005 175.453ZM138.033 530.792C138.033 519.608 138.147 508.421 137.996 497.239 137.883 488.847 141.583 484.378 150.174 484.376 162.912 484.374 175.653 484.44 188.392 484.343 197.016 484.277 200.933 488.821 200.957 497.011 201.026 520.001 201.013 542.989 200.909 565.979 200.871 574.241 196.764 578.574 188.198 578.492 175.771 578.369 163.339 578.589 150.912 578.419 141.671 578.29 138.145 574.641 138.035 565.276 137.898 553.784 138.001 542.286 138.001 530.792L138.033 530.792ZM319.429 514.903C319.434 498.73 319.352 482.554 319.464 466.383 319.535 456.373 322.88 453.094 332.942 453.008 345.073 452.905 357.206 452.866 369.335 453.021 378.709 453.141 382.379 456.565 382.422 465.994 382.574 499.272 382.499 532.553 382.403 565.832 382.381 574.06 378.289 578.518 369.734 578.472 357.29 578.404 344.847 578.584 332.407 578.416 323.138 578.288 319.526 574.615 319.459 565.288 319.333 548.494 319.423 531.697 319.429 514.903ZM291.466 499.91C291.468 521.378 291.535 542.847 291.44 564.316 291.393 575.137 288.271 578.316 277.707 578.429 265.884 578.556 254.057 578.541 242.232 578.427 232.515 578.335 228.931 575.21 228.895 565.783 228.731 521.913 228.712 478.039 228.85 434.169 228.88 424.731 232.481 421.556 242.18 421.449 254.315 421.314 266.452 421.316 278.587 421.453 287.92 421.556 291.376 425.038 291.427 434.569 291.541 456.348 291.462 478.127 291.466 499.91ZM851.189 328.565C811.918 357.983 773.101 387.058 733.189 416.957L733.189 265.417C768.919 261.963 830.299 294.486 851.189 328.565ZM410.291 485.019C410.291 458.558 410.267 432.098 410.302 405.641 410.319 392.776 413.301 389.875 426.363 389.847 437.261 389.821 448.158 389.769 459.054 389.873 469.142 389.972 472.834 393.376 472.851 403.096 472.94 457.262 472.957 511.428 472.877 565.59 472.864 574.87 469.192 578.337 459.717 578.451 447.579 578.599 435.434 578.593 423.294 578.447 413.968 578.337 410.452 574.888 410.401 565.333 410.257 538.561 410.351 511.789 410.351 485.019L410.291 485.019ZM350.201 385.916C379.395 352.755 408.289 319.934 438.867 285.201 425.359 285.201 414.314 285.03 403.275 285.263 395.817 285.418 390.089 283.405 389.384 275.055 388.812 268.29 394.294 264.423 403.781 264.406 422.151 264.374 440.523 264.355 458.895 264.449 469.676 264.503 472.826 267.597 472.883 278.285 472.985 297.275 472.811 316.267 472.983 335.259 473.051 342.627 470.192 347.951 462.638 347.968 455.158 347.987 451.979 342.762 452.078 335.382 452.217 325.204 452.114 315.02 452.114 302.399 447.582 307.317 444.501 310.538 441.557 313.878 415.208 343.773 388.913 373.717 362.529 403.581 354.217 412.991 350.653 413.269 340.636 405.3 314.087 384.183 287.621 362.965 260.546 341.326 257.992 343.568 255.452 345.667 253.055 347.919 222.66 376.5 192.288 405.106 161.903 433.695 159.637 435.826 157.468 438.117 154.958 439.919 149.959 443.506 144.053 443.669 141.067 438.443 139.113 435.026 140.063 429.431 140.998 425.088 141.49 422.806 144.715 421.09 146.754 419.168 180.75 387.146 214.747 355.123 248.759 323.12 257.806 314.609 260.543 314.489 270.266 322.25 294.11 341.278 317.918 360.35 341.751 379.39 344.405 381.512 347.129 383.548 350.201 385.916ZM818.927 558.956C792.834 518.518 766.756 478.101 740.33 437.147 781.422 406.381 821.931 376.054 862.468 345.702 903.609 407.373 890.86 508.701 818.927 558.956ZM711.962 276.986C711.962 307.281 711.966 336.81 711.96 366.337 711.958 385.015 711.684 403.698 712.117 422.363 712.226 427.016 713.617 432.246 716.094 436.145 739.282 472.639 762.832 508.897 786.272 545.23 789.114 549.632 791.916 554.061 794.726 558.465 753.101 584.896 685.497 587.915 633.13 550.085 579.918 511.647 557.331 443.888 577.058 381.94 596.144 322.015 652.556 277.741 711.962 276.986Z" fill="#4472C4"/></svg>